<?xml version="1.0" standalone="no"?>
<!DOCTYPE svg PUBLIC "-//W3C//DTD SVG 20010904//EN"
 "http://www.w3.org/TR/2001/REC-SVG-20010904/DTD/svg10.dtd">
<svg version="1.0" xmlns="http://www.w3.org/2000/svg"
  viewBox="0 0 120 120"
 preserveAspectRatio="xMidYMid meet">
<metadata>
Created by potrace 1.10, written by Peter Selinger 2001-2011
</metadata>
<g transform="translate(0.000000,135.000000) scale(0.100000,-0.100000)"
fill="black" stroke="none">
<path d="M35 989 c-11 -17 4 -24 47 -24 l41 0 59 -204 59 -204 -21 -51 c-12
-28 -24 -57 -27 -65 -5 -11 -2 -12 12 -4 10 6 28 35 40 64 l23 54 260 3 c260
2 260 2 266 25 14 59 66 309 66 322 0 13 -49 15 -348 15 l-349 0 -12 40 c-12
40 -12 40 -61 40 -27 0 -52 -5 -55 -11z m804 -121 c-4 -18 -20 -87 -35 -153
-14 -66 -31 -125 -36 -132 -7 -9 -73 -11 -260 -8 -138 3 -252 6 -253 7 0 2
-20 68 -42 148 -35 125 -39 147 -26 157 10 8 108 12 338 12 l323 1 -9 -32z"/>
<path d="M679 416 c-30 -14 -38 -66 -14 -90 36 -35 95 -7 95 46 0 41 -42 64
-81 44z m56 -51 c0 -24 -5 -31 -24 -33 -32 -5 -54 23 -40 50 7 13 19 18 37 16
23 -2 27 -8 27 -33z"/>
<path d="M173 394 c-15 -24 -15 -29 -2 -53 28 -50 109 -32 109 25 0 55 -76 75
-107 28z m82 -14 c8 -27 -12 -52 -39 -48 -21 3 -32 28 -22 54 8 22 54 18 61
-6z"/>
<path d="M285 400 c8 -14 355 -14 355 0 0 6 -67 10 -181 10 -117 0 -178 -3
-174 -10z"/>
</g>
</svg>
