<?xml version="1.0" standalone="no"?>
<!DOCTYPE svg PUBLIC "-//W3C//DTD SVG 20010904//EN"
 "http://www.w3.org/TR/2001/REC-SVG-20010904/DTD/svg10.dtd">
<svg version="1.0" xmlns="http://www.w3.org/2000/svg"
 width="300.000000pt" height="135.000000pt" viewBox="0 0 300.000000 135.000000"
 preserveAspectRatio="xMidYMid meet">
<metadata>
Created by potrace 1.10, written by Peter Selinger 2001-2011
</metadata>
<g transform="translate(0.000000,135.000000) scale(0.100000,-0.100000)"
fill="#FFF" stroke="none">
<path d="M35 989 c-11 -17 4 -24 47 -24 l41 0 59 -204 59 -204 -21 -51 c-12
-28 -24 -57 -27 -65 -5 -11 -2 -12 12 -4 10 6 28 35 40 64 l23 54 260 3 c260
2 260 2 266 25 14 59 66 309 66 322 0 13 -49 15 -348 15 l-349 0 -12 40 c-12
40 -12 40 -61 40 -27 0 -52 -5 -55 -11z m804 -121 c-4 -18 -20 -87 -35 -153
-14 -66 -31 -125 -36 -132 -7 -9 -73 -11 -260 -8 -138 3 -252 6 -253 7 0 2
-20 68 -42 148 -35 125 -39 147 -26 157 10 8 108 12 338 12 l323 1 -9 -32z"/>
<path d="M1140 858 c-18 -13 -47 -40 -64 -61 -27 -34 -31 -48 -34 -111 -8
-156 78 -240 196 -191 64 27 110 85 126 160 7 32 -13 135 -32 172 -28 52 -136
69 -192 31z m25 -21 c-11 -7 -35 -27 -52 -45 -34 -35 -41 -35 -22 -1 11 21 67
59 84 58 6 0 1 -6 -10 -12z m126 -10 c32 -27 58 -143 40 -174 -9 -15 -11 -11
-10 22 2 48 -23 110 -59 148 -32 34 -9 37 29 4z m-63 -13 c46 -13 84 -133 62
-198 -10 -32 -28 -45 -85 -60 -45 -12 -85 58 -85 149 0 49 4 60 29 86 31 30
40 33 79 23z m-138 -102 c0 -64 27 -138 61 -167 36 -29 32 -43 -8 -29 -54 19
-83 95 -75 197 4 49 22 48 22 -1z m231 -114 c-13 -35 -68 -78 -99 -78 -23 0
-21 3 18 23 25 12 54 36 65 53 23 37 30 37 16 2z"/>
<path d="M1700 815 c-16 -19 -30 -104 -19 -110 4 -3 17 9 29 25 37 52 27 130
-10 85z"/>
<path d="M2601 757 c-7 -9 -26 -17 -41 -17 -103 0 -228 -113 -201 -182 18 -46
89 -98 134 -98 37 0 147 83 147 111 0 5 -13 0 -28 -11 -37 -27 -98 -41 -129
-29 -26 10 -72 57 -73 75 0 7 18 28 40 48 64 57 124 47 113 -20 -3 -19 -2 -34
3 -34 17 1 46 29 40 38 -3 5 -1 23 5 40 6 17 9 45 7 63 -3 29 -4 31 -17 16z
m-116 -260 c18 -4 18 -5 -2 -6 -13 0 -32 8 -42 18 -11 11 -22 17 -24 14 -6 -6
-30 35 -33 57 -2 8 16 -6 39 -32 23 -26 51 -49 62 -51z"/>
<path d="M1814 729 c-16 -18 -19 -37 -19 -134 0 -63 3 -117 7 -121 4 -4 14 -1
23 6 12 10 15 10 15 -4 0 -20 14 -21 30 -1 9 11 9 26 1 65 -18 84 -15 98 24
117 28 13 37 14 49 3 26 -21 39 -87 27 -134 -12 -49 1 -63 35 -38 22 16 23 22
18 106 -3 49 -9 97 -15 108 -14 27 -69 23 -114 -8 l-37 -25 6 25 c7 28 -2 33
-23 14 -10 -11 -11 -8 -6 15 9 33 4 34 -21 6z m30 -79 c-5 -5 -9 -40 -7 -77 2
-47 0 -63 -7 -53 -5 8 -10 51 -10 95 0 75 1 78 17 62 11 -11 14 -20 7 -27z
m146 20 c0 -11 -2 -20 -3 -20 -2 0 -12 9 -22 20 -18 19 -17 20 3 20 15 0 22
-6 22 -20z"/>
<path d="M1450 699 c0 -5 -6 -6 -14 -3 -9 4 -21 -6 -31 -27 -15 -28 -16 -42
-4 -130 9 -70 16 -99 26 -99 7 0 13 6 14 13 0 6 5 2 11 -10 13 -27 21 -28 38
-8 13 15 8 67 -13 139 -10 34 -9 40 8 52 30 22 81 18 99 -8 9 -12 17 -20 18
-17 34 54 35 73 6 93 -33 24 -72 19 -109 -11 l-32 -28 6 26 c5 19 3 26 -8 26
-8 0 -15 -4 -15 -8z m140 -29 c26 -16 4 -21 -31 -6 -31 14 -32 15 -9 15 14 1
32 -3 40 -9z m-131 -14 c9 -11 9 -16 0 -21 -11 -8 -7 -90 7 -142 5 -18 3 -21
-14 -16 -17 4 -21 17 -27 78 -9 100 4 138 34 101z"/>
<path d="M1691 686 c-18 -19 -21 -35 -21 -107 0 -46 3 -94 6 -106 8 -28 35
-30 57 -5 14 16 15 27 6 83 -6 35 -8 83 -5 106 7 50 -12 62 -43 29z m16 -78
c-3 -8 -6 -5 -6 6 -1 11 2 17 5 13 3 -3 4 -12 1 -19z m6 -85 c4 -19 2 -33 -3
-33 -6 0 -10 17 -10 37 0 43 5 41 13 -4z"/>
<path d="M2129 680 c-83 -67 -92 -171 -19 -213 18 -11 50 -17 88 -17 57 0 61
2 95 39 47 52 54 88 27 141 -41 81 -127 104 -191 50z m155 -39 c11 -12 16 -21
12 -21 -14 0 -76 47 -70 53 9 8 35 -6 58 -32z m-53 -14 c18 -12 40 -35 49 -49
13 -25 13 -29 -2 -44 -9 -9 -39 -19 -67 -22 -67 -6 -101 15 -101 61 0 73 56
98 121 54z m59 -121 c0 -2 -8 -10 -17 -17 -16 -13 -17 -12 -4 4 13 16 21 21
21 13z"/>
<path d="M2732 684 c-37 -29 -72 -91 -72 -128 0 -69 48 -106 137 -106 55 0 61
3 96 38 48 49 55 87 28 141 -41 79 -126 104 -189 55z m129 -21 c16 -10 29 -24
29 -32 0 -12 -3 -12 -17 1 -10 9 -31 23 -48 31 -22 12 -25 16 -12 17 11 0 32
-8 48 -17z m-30 -36 c18 -12 40 -35 49 -49 13 -25 13 -29 -2 -44 -9 -9 -39
-19 -67 -22 -67 -6 -101 15 -101 61 0 73 56 98 121 54z m59 -121 c0 -2 -8 -10
-17 -17 -16 -13 -17 -12 -4 4 13 16 21 21 21 13z m-150 -16 c8 -5 11 -10 5
-10 -5 0 -17 5 -25 10 -8 5 -10 10 -5 10 6 0 17 -5 25 -10z"/>
<path d="M679 416 c-30 -14 -38 -66 -14 -90 36 -35 95 -7 95 46 0 41 -42 64
-81 44z m56 -51 c0 -24 -5 -31 -24 -33 -32 -5 -54 23 -40 50 7 13 19 18 37 16
23 -2 27 -8 27 -33z"/>
<path d="M173 394 c-15 -24 -15 -29 -2 -53 28 -50 109 -32 109 25 0 55 -76 75
-107 28z m82 -14 c8 -27 -12 -52 -39 -48 -21 3 -32 28 -22 54 8 22 54 18 61
-6z"/>
<path d="M285 400 c8 -14 355 -14 355 0 0 6 -67 10 -181 10 -117 0 -178 -3
-174 -10z"/>
</g>
</svg>
